<svg xmlns="http://www.w3.org/2000/svg" viewBox="0 0 441.73 176.41" role="img" aria-labelledby="cd-lock-foil-t"><title id="cd-lock-foil-t">Curry District — Indian Kitchen · Little Elm, TX</title><defs><linearGradient id="cd-lock-foil-foil" gradientUnits="userSpaceOnUse" x1="0" y1="0" x2="441.73" y2="176.41"><stop offset="0" stop-color="#B7791F"/><stop offset="0.38" stop-color="#F7D98A"/><stop offset="0.58" stop-color="#E9A63A"/><stop offset="1" stop-color="#B7791F"/></linearGradient><linearGradient id="cd-lock-foil-foil-emb" gradientUnits="userSpaceOnUse" x1="0.24" y1="-1.26" x2="645.06" y2="256.26"><stop offset="0" stop-color="#B7791F"/><stop offset="0.38" stop-color="#F7D98A"/><stop offset="0.58" stop-color="#E9A63A"/><stop offset="1" stop-color="#B7791F"/></linearGradient></defs><g transform="translate(-0.17 0.86) scale(0.68504)"><g fill="none" stroke="url(#cd-lock-foil-foil-emb)" stroke-linejoin="round"><path d="M28,236 V122 C28,67 69.76,36.2 100,12 C130.24,36.2 172,67 172,122 V236" stroke-width="5.0"/><path d="M37.5,236 V123.5 Q44.79,111.46 41.44,97.78 Q52.11,88.55 53.01,74.46 Q65.86,68.31 69.99,54.66 Q83.84,50.72 89.74,37.58 Q100,35.9 110.26,37.58 Q116.16,50.72 130.01,54.66 Q134.14,68.31 146.99,74.46 Q147.89,88.55 158.56,97.78 Q155.21,111.46 162.5,123.5 V236" stroke-width="1.5"/><path d="M14,236 H186" stroke-width="5.0" stroke-linecap="round"/><path d="M27,245 H173" stroke-width="1.5" stroke-linecap="round"/></g><path fill="url(#cd-lock-foil-foil-emb)" d="M31.55,226 a1.05,1.05 0 1,0 2.1,0 a1.05,1.05 0 1,0 -2.1,0ZM31.55,219.8 a1.05,1.05 0 1,0 2.1,0 a1.05,1.05 0 1,0 -2.1,0ZM31.55,213.6 a1.05,1.05 0 1,0 2.1,0 a1.05,1.05 0 1,0 -2.1,0ZM31.55,207.4 a1.05,1.05 0 1,0 2.1,0 a1.05,1.05 0 1,0 -2.1,0ZM31.55,201.2 a1.05,1.05 0 1,0 2.1,0 a1.05,1.05 0 1,0 -2.1,0ZM31.55,195 a1.05,1.05 0 1,0 2.1,0 a1.05,1.05 0 1,0 -2.1,0ZM31.55,188.8 a1.05,1.05 0 1,0 2.1,0 a1.05,1.05 0 1,0 -2.1,0ZM31.55,182.6 a1.05,1.05 0 1,0 2.1,0 a1.05,1.05 0 1,0 -2.1,0ZM31.55,176.4 a1.05,1.05 0 1,0 2.1,0 a1.05,1.05 0 1,0 -2.1,0ZM31.55,170.2 a1.05,1.05 0 1,0 2.1,0 a1.05,1.05 0 1,0 -2.1,0ZM31.55,164 a1.05,1.05 0 1,0 2.1,0 a1.05,1.05 0 1,0 -2.1,0ZM31.55,157.8 a1.05,1.05 0 1,0 2.1,0 a1.05,1.05 0 1,0 -2.1,0ZM31.55,151.6 a1.05,1.05 0 1,0 2.1,0 a1.05,1.05 0 1,0 -2.1,0ZM31.55,145.4 a1.05,1.05 0 1,0 2.1,0 a1.05,1.05 0 1,0 -2.1,0ZM31.55,139.2 a1.05,1.05 0 1,0 2.1,0 a1.05,1.05 0 1,0 -2.1,0ZM31.55,133 a1.05,1.05 0 1,0 2.1,0 a1.05,1.05 0 1,0 -2.1,0ZM31.55,126.8 a1.05,1.05 0 1,0 2.1,0 a1.05,1.05 0 1,0 -2.1,0ZM31.57,120.6 a1.05,1.05 0 1,0 2.1,0 a1.05,1.05 0 1,0 -2.1,0ZM31.91,114.41 a1.05,1.05 0 1,0 2.1,0 a1.05,1.05 0 1,0 -2.1,0ZM32.65,108.26 a1.05,1.05 0 1,0 2.1,0 a1.05,1.05 0 1,0 -2.1,0ZM33.81,102.17 a1.05,1.05 0 1,0 2.1,0 a1.05,1.05 0 1,0 -2.1,0ZM35.39,96.17 a1.05,1.05 0 1,0 2.1,0 a1.05,1.05 0 1,0 -2.1,0ZM37.37,90.3 a1.05,1.05 0 1,0 2.1,0 a1.05,1.05 0 1,0 -2.1,0ZM39.75,84.58 a1.05,1.05 0 1,0 2.1,0 a1.05,1.05 0 1,0 -2.1,0ZM42.5,79.02 a1.05,1.05 0 1,0 2.1,0 a1.05,1.05 0 1,0 -2.1,0ZM45.59,73.64 a1.05,1.05 0 1,0 2.1,0 a1.05,1.05 0 1,0 -2.1,0ZM48.99,68.46 a1.05,1.05 0 1,0 2.1,0 a1.05,1.05 0 1,0 -2.1,0ZM52.66,63.46 a1.05,1.05 0 1,0 2.1,0 a1.05,1.05 0 1,0 -2.1,0ZM56.57,58.65 a1.05,1.05 0 1,0 2.1,0 a1.05,1.05 0 1,0 -2.1,0ZM60.68,54.02 a1.05,1.05 0 1,0 2.1,0 a1.05,1.05 0 1,0 -2.1,0ZM64.98,49.55 a1.05,1.05 0 1,0 2.1,0 a1.05,1.05 0 1,0 -2.1,0ZM69.43,45.23 a1.05,1.05 0 1,0 2.1,0 a1.05,1.05 0 1,0 -2.1,0ZM74,41.04 a1.05,1.05 0 1,0 2.1,0 a1.05,1.05 0 1,0 -2.1,0ZM78.68,36.97 a1.05,1.05 0 1,0 2.1,0 a1.05,1.05 0 1,0 -2.1,0ZM83.44,33 a1.05,1.05 0 1,0 2.1,0 a1.05,1.05 0 1,0 -2.1,0ZM88.25,29.09 a1.05,1.05 0 1,0 2.1,0 a1.05,1.05 0 1,0 -2.1,0ZM93.1,25.23 a1.05,1.05 0 1,0 2.1,0 a1.05,1.05 0 1,0 -2.1,0ZM97.96,21.38 a1.05,1.05 0 1,0 2.1,0 a1.05,1.05 0 1,0 -2.1,0ZM102.82,23.67 a1.05,1.05 0 1,0 2.1,0 a1.05,1.05 0 1,0 -2.1,0ZM107.68,27.52 a1.05,1.05 0 1,0 2.1,0 a1.05,1.05 0 1,0 -2.1,0ZM112.51,31.4 a1.05,1.05 0 1,0 2.1,0 a1.05,1.05 0 1,0 -2.1,0ZM117.3,35.35 a1.05,1.05 0 1,0 2.1,0 a1.05,1.05 0 1,0 -2.1,0ZM122.01,39.38 a1.05,1.05 0 1,0 2.1,0 a1.05,1.05 0 1,0 -2.1,0ZM126.63,43.51 a1.05,1.05 0 1,0 2.1,0 a1.05,1.05 0 1,0 -2.1,0ZM131.13,47.78 a1.05,1.05 0 1,0 2.1,0 a1.05,1.05 0 1,0 -2.1,0ZM135.49,52.18 a1.05,1.05 0 1,0 2.1,0 a1.05,1.05 0 1,0 -2.1,0ZM139.69,56.75 a1.05,1.05 0 1,0 2.1,0 a1.05,1.05 0 1,0 -2.1,0ZM143.68,61.49 a1.05,1.05 0 1,0 2.1,0 a1.05,1.05 0 1,0 -2.1,0ZM147.46,66.41 a1.05,1.05 0 1,0 2.1,0 a1.05,1.05 0 1,0 -2.1,0ZM150.97,71.52 a1.05,1.05 0 1,0 2.1,0 a1.05,1.05 0 1,0 -2.1,0ZM154.18,76.81 a1.05,1.05 0 1,0 2.1,0 a1.05,1.05 0 1,0 -2.1,0ZM157.07,82.3 a1.05,1.05 0 1,0 2.1,0 a1.05,1.05 0 1,0 -2.1,0ZM159.61,87.96 a1.05,1.05 0 1,0 2.1,0 a1.05,1.05 0 1,0 -2.1,0ZM161.75,93.77 a1.05,1.05 0 1,0 2.1,0 a1.05,1.05 0 1,0 -2.1,0ZM163.5,99.72 a1.05,1.05 0 1,0 2.1,0 a1.05,1.05 0 1,0 -2.1,0ZM164.83,105.77 a1.05,1.05 0 1,0 2.1,0 a1.05,1.05 0 1,0 -2.1,0ZM165.74,111.91 a1.05,1.05 0 1,0 2.1,0 a1.05,1.05 0 1,0 -2.1,0ZM166.24,118.09 a1.05,1.05 0 1,0 2.1,0 a1.05,1.05 0 1,0 -2.1,0ZM166.35,124.28 a1.05,1.05 0 1,0 2.1,0 a1.05,1.05 0 1,0 -2.1,0ZM166.35,130.48 a1.05,1.05 0 1,0 2.1,0 a1.05,1.05 0 1,0 -2.1,0ZM166.35,136.68 a1.05,1.05 0 1,0 2.1,0 a1.05,1.05 0 1,0 -2.1,0ZM166.35,142.88 a1.05,1.05 0 1,0 2.1,0 a1.05,1.05 0 1,0 -2.1,0ZM166.35,149.08 a1.05,1.05 0 1,0 2.1,0 a1.05,1.05 0 1,0 -2.1,0ZM166.35,155.28 a1.05,1.05 0 1,0 2.1,0 a1.05,1.05 0 1,0 -2.1,0ZM166.35,161.48 a1.05,1.05 0 1,0 2.1,0 a1.05,1.05 0 1,0 -2.1,0ZM166.35,167.68 a1.05,1.05 0 1,0 2.1,0 a1.05,1.05 0 1,0 -2.1,0ZM166.35,173.88 a1.05,1.05 0 1,0 2.1,0 a1.05,1.05 0 1,0 -2.1,0ZM166.35,180.08 a1.05,1.05 0 1,0 2.1,0 a1.05,1.05 0 1,0 -2.1,0ZM166.35,186.28 a1.05,1.05 0 1,0 2.1,0 a1.05,1.05 0 1,0 -2.1,0ZM166.35,192.48 a1.05,1.05 0 1,0 2.1,0 a1.05,1.05 0 1,0 -2.1,0ZM166.35,198.68 a1.05,1.05 0 1,0 2.1,0 a1.05,1.05 0 1,0 -2.1,0ZM166.35,204.88 a1.05,1.05 0 1,0 2.1,0 a1.05,1.05 0 1,0 -2.1,0ZM166.35,211.08 a1.05,1.05 0 1,0 2.1,0 a1.05,1.05 0 1,0 -2.1,0ZM166.35,217.28 a1.05,1.05 0 1,0 2.1,0 a1.05,1.05 0 1,0 -2.1,0ZM166.35,223.48 a1.05,1.05 0 1,0 2.1,0 a1.05,1.05 0 1,0 -2.1,0Z"/><path fill="url(#cd-lock-foil-foil-emb)" d="M100,38 L104.6,46.5 L100,55 L95.4,46.5ZM98.5,60.5 a1.5,1.5 0 1,0 3,0 a1.5,1.5 0 1,0 -3,0Z"/><g fill="url(#cd-lock-foil-foil-emb)"><path d="M100.51,150.68 L99.95,149.6 L99.51,148.55 L99.16,147.52 L98.91,146.51 L98.74,145.51 L98.64,144.52 L98.61,143.54 L98.65,142.56 L98.74,141.59 L98.89,140.61 L99.09,139.63 L99.33,138.65 L99.61,137.66 L99.92,136.66 L100.27,135.65 L100.64,134.64 L101.03,133.61 L101.44,132.57 L101.86,131.52 L102.28,130.45 L102.7,129.37 L103.11,128.27 L103.51,127.16 L103.89,126.03 L104.25,124.88 L104.58,123.72 L104.87,122.53 L105.12,121.32 L105.31,120.09 L105.45,118.84 L105.52,117.57 L105.52,116.28 L105.44,114.98 L105.27,113.66 L105.01,112.33 L104.65,111 L104.19,109.66 L103.62,108.32 L102.94,106.99 L102.18,105.73 L101.51,104.62 L100.97,103.61 L100.53,102.63 L100.18,101.66 L99.9,100.72 L99.7,99.78 L99.56,98.85 L99.49,97.92 L99.47,96.99 L99.51,96.06 L99.6,95.13 L99.74,94.18 L99.92,93.23 L100.14,92.27 L100.4,91.31 L100.69,90.34 L101,89.36 L101.33,88.38 L101.68,87.39 L102.03,86.4 L102.39,85.4 L102.74,84.4 L103.09,83.39 L103.42,82.37 L103.72,81.35 L104,80.33 L104.24,79.3 L104.44,78.27 L104.59,77.23 L104.68,76.19 L104.71,75.14 L104.68,74.1 L104.57,73.05 L104.37,72 L104.1,70.96 L103.73,69.92 L103.26,68.89 L102.69,67.86 L102.02,66.84 L101.25,65.83 L100.75,66.17 L101.36,67.25 L101.86,68.29 L102.25,69.32 L102.54,70.31 L102.74,71.29 L102.86,72.24 L102.9,73.18 L102.87,74.11 L102.78,75.03 L102.63,75.94 L102.43,76.84 L102.17,77.74 L101.87,78.65 L101.53,79.55 L101.16,80.46 L100.76,81.37 L100.34,82.29 L99.89,83.22 L99.43,84.15 L98.97,85.1 L98.5,86.06 L98.03,87.04 L97.58,88.03 L97.14,89.04 L96.72,90.07 L96.32,91.11 L95.97,92.19 L95.65,93.29 L95.39,94.41 L95.18,95.56 L95.03,96.74 L94.96,97.95 L94.97,99.18 L95.07,100.44 L95.26,101.72 L95.56,103.02 L95.96,104.33 L96.48,105.66 L97.11,107 L97.82,108.27 L98.45,109.41 L98.95,110.45 L99.36,111.48 L99.69,112.49 L99.95,113.49 L100.14,114.48 L100.27,115.48 L100.33,116.47 L100.35,117.47 L100.31,118.47 L100.23,119.49 L100.11,120.51 L99.95,121.54 L99.75,122.59 L99.53,123.64 L99.27,124.7 L99,125.78 L98.71,126.86 L98.41,127.95 L98.1,129.05 L97.79,130.15 L97.48,131.27 L97.19,132.38 L96.91,133.51 L96.65,134.64 L96.42,135.77 L96.23,136.91 L96.07,138.05 L95.96,139.19 L95.91,140.33 L95.91,141.47 L95.98,142.61 L96.12,143.74 L96.33,144.87 L96.63,145.98 L97.01,147.09 L97.49,148.18 L98.06,149.25 L98.73,150.3 L99.49,151.32ZM83.43,150.75 L83.02,149.89 L82.7,149.07 L82.44,148.26 L82.24,147.46 L82.1,146.67 L82.01,145.88 L81.97,145.1 L81.97,144.33 L82.01,143.56 L82.09,142.79 L82.21,142.01 L82.35,141.24 L82.52,140.46 L82.71,139.67 L82.92,138.88 L83.15,138.08 L83.39,137.28 L83.64,136.46 L83.89,135.64 L84.15,134.81 L84.4,133.97 L84.65,133.12 L84.89,132.25 L85.11,131.38 L85.32,130.49 L85.5,129.59 L85.66,128.68 L85.78,127.75 L85.87,126.82 L85.91,125.86 L85.91,124.9 L85.86,123.93 L85.75,122.95 L85.58,121.96 L85.35,120.96 L85.04,119.97 L84.67,118.97 L84.22,117.98 L83.69,116.99 L83.12,116.07 L82.75,115.48 L82.42,114.9 L82.11,114.34 L81.82,113.77 L81.55,113.21 L81.31,112.66 L81.08,112.11 L80.88,111.56 L80.7,111.01 L80.54,110.47 L80.39,109.93 L80.27,109.39 L80.17,108.85 L80.08,108.31 L80.01,107.78 L79.96,107.24 L79.93,106.7 L79.92,106.17 L79.92,105.63 L79.94,105.09 L79.98,104.56 L80.04,104.02 L80.11,103.48 L80.2,102.93 L80.3,102.39 L80.42,101.85 L80.56,101.3 L80.72,100.76 L80.89,100.21 L81.07,99.66 L81.27,99.11 L81.48,98.56 L81.71,98.01 L81.96,97.46 L82.22,96.91 L82.49,96.36 L82.77,95.8 L83.07,95.25 L83.38,94.7 L83.7,94.14 L83.3,93.86 L82.88,94.35 L82.48,94.86 L82.08,95.36 L81.7,95.87 L81.33,96.39 L80.97,96.91 L80.63,97.43 L80.3,97.97 L79.98,98.5 L79.68,99.04 L79.39,99.59 L79.12,100.14 L78.86,100.7 L78.62,101.26 L78.4,101.83 L78.2,102.41 L78.01,102.99 L77.84,103.58 L77.69,104.18 L77.56,104.78 L77.45,105.39 L77.36,106.01 L77.29,106.63 L77.25,107.26 L77.22,107.89 L77.22,108.53 L77.25,109.17 L77.29,109.82 L77.37,110.48 L77.46,111.14 L77.59,111.8 L77.73,112.47 L77.91,113.15 L78.11,113.82 L78.34,114.5 L78.59,115.19 L78.88,115.87 L79.19,116.56 L79.52,117.25 L79.88,117.93 L80.36,118.81 L80.73,119.61 L81.05,120.4 L81.31,121.17 L81.52,121.95 L81.68,122.71 L81.79,123.48 L81.87,124.25 L81.91,125.02 L81.92,125.79 L81.89,126.57 L81.84,127.36 L81.76,128.16 L81.65,128.96 L81.53,129.77 L81.39,130.59 L81.24,131.42 L81.07,132.25 L80.9,133.09 L80.73,133.94 L80.55,134.79 L80.38,135.65 L80.22,136.52 L80.07,137.39 L79.93,138.26 L79.82,139.14 L79.73,140.03 L79.67,140.91 L79.63,141.8 L79.64,142.68 L79.69,143.57 L79.78,144.45 L79.92,145.34 L80.12,146.21 L80.37,147.08 L80.68,147.94 L81.05,148.79 L81.49,149.63 L82,150.46 L82.57,151.25ZM117.43,151.25 L118,150.46 L118.51,149.63 L118.95,148.79 L119.32,147.94 L119.63,147.08 L119.88,146.21 L120.08,145.34 L120.22,144.45 L120.31,143.57 L120.36,142.68 L120.37,141.8 L120.33,140.91 L120.27,140.03 L120.18,139.14 L120.07,138.26 L119.93,137.39 L119.78,136.52 L119.62,135.65 L119.45,134.79 L119.27,133.94 L119.1,133.09 L118.93,132.25 L118.76,131.42 L118.61,130.59 L118.47,129.77 L118.35,128.96 L118.24,128.16 L118.16,127.36 L118.11,126.57 L118.08,125.79 L118.09,125.02 L118.13,124.25 L118.21,123.48 L118.32,122.71 L118.48,121.95 L118.69,121.17 L118.95,120.4 L119.27,119.61 L119.64,118.81 L120.12,117.93 L120.48,117.25 L120.81,116.56 L121.12,115.87 L121.41,115.19 L121.66,114.5 L121.89,113.82 L122.09,113.15 L122.27,112.47 L122.41,111.8 L122.54,111.14 L122.63,110.48 L122.71,109.82 L122.75,109.17 L122.78,108.53 L122.78,107.89 L122.75,107.26 L122.71,106.63 L122.64,106.01 L122.55,105.39 L122.44,104.78 L122.31,104.18 L122.16,103.58 L121.99,102.99 L121.8,102.41 L121.6,101.83 L121.38,101.26 L121.14,100.7 L120.88,100.14 L120.61,99.59 L120.32,99.04 L120.02,98.5 L119.7,97.97 L119.37,97.43 L119.03,96.91 L118.67,96.39 L118.3,95.87 L117.92,95.36 L117.52,94.86 L117.12,94.35 L116.7,93.86 L116.3,94.14 L116.62,94.7 L116.93,95.25 L117.23,95.8 L117.51,96.36 L117.78,96.91 L118.04,97.46 L118.29,98.01 L118.52,98.56 L118.73,99.11 L118.93,99.66 L119.11,100.21 L119.28,100.76 L119.44,101.3 L119.58,101.85 L119.7,102.39 L119.8,102.93 L119.89,103.48 L119.96,104.02 L120.02,104.56 L120.06,105.09 L120.08,105.63 L120.08,106.17 L120.07,106.7 L120.04,107.24 L119.99,107.78 L119.92,108.31 L119.83,108.85 L119.73,109.39 L119.61,109.93 L119.46,110.47 L119.3,111.01 L119.12,111.56 L118.92,112.11 L118.69,112.66 L118.45,113.21 L118.18,113.77 L117.89,114.34 L117.58,114.9 L117.25,115.48 L116.88,116.07 L116.31,116.99 L115.78,117.98 L115.33,118.97 L114.96,119.97 L114.65,120.96 L114.42,121.96 L114.25,122.95 L114.14,123.93 L114.09,124.9 L114.09,125.86 L114.13,126.82 L114.22,127.75 L114.34,128.68 L114.5,129.59 L114.68,130.49 L114.89,131.38 L115.11,132.25 L115.35,133.12 L115.6,133.97 L115.85,134.81 L116.11,135.64 L116.36,136.46 L116.61,137.28 L116.85,138.08 L117.08,138.88 L117.29,139.67 L117.48,140.46 L117.65,141.24 L117.79,142.01 L117.91,142.79 L117.99,143.56 L118.03,144.33 L118.03,145.1 L117.99,145.88 L117.9,146.67 L117.76,147.46 L117.56,148.26 L117.3,149.07 L116.98,149.89 L116.57,150.75Z"/></g><clipPath id="cd-lock-foil-emb-hc"><path d="M70.76,160.22L129.24,160.22C132.34,160.22 132.34,166.24 129.24,166.24L123.22,166.24C135.26,170.54 139.99,180 139.56,191.18C139.13,205.8 122.36,216.12 100,216.12C77.64,216.12 60.87,205.8 60.44,191.18C60.01,180 64.74,170.54 76.78,166.24L70.76,166.24C67.66,166.24 67.66,160.22 70.76,160.22Z"/></clipPath><g clip-path="url(#cd-lock-foil-emb-hc)" fill="url(#cd-lock-foil-foil-emb)"><path d="M48.4,151.62L151.6,151.62L151.6,181.98L48.4,181.98ZM48.4,200.38L151.6,200.38L151.6,229.02L48.4,229.02Z"/><path fill-rule="evenodd" d="M48.4,183.44L151.6,183.44L151.6,198.92L48.4,198.92ZM60.7,196.34L60.7,190.32C60.7,188.26 61.98,187.05 63.02,186.02C64.06,187.05 65.34,188.26 65.34,190.32L65.34,196.34ZM68.09,196.34L68.09,190.32C68.09,188.26 69.37,187.05 70.42,186.02C71.46,187.05 72.74,188.26 72.74,190.32L72.74,196.34ZM75.49,196.34L75.49,190.32C75.49,188.26 76.77,187.05 77.81,186.02C78.86,187.05 80.13,188.26 80.13,190.32L80.13,196.34ZM82.89,196.34L82.89,190.32C82.89,188.26 84.16,187.05 85.21,186.02C86.25,187.05 87.53,188.26 87.53,190.32L87.53,196.34ZM90.28,196.34L90.28,190.32C90.28,188.26 91.56,187.05 92.6,186.02C93.65,187.05 94.93,188.26 94.93,190.32L94.93,196.34ZM97.68,196.34L97.68,190.32C97.68,188.26 98.96,187.05 100,186.02C101.04,187.05 102.32,188.26 102.32,190.32L102.32,196.34ZM105.07,196.34L105.07,190.32C105.07,188.26 106.35,187.05 107.4,186.02C108.44,187.05 109.72,188.26 109.72,190.32L109.72,196.34ZM112.47,196.34L112.47,190.32C112.47,188.26 113.75,187.05 114.79,186.02C115.84,187.05 117.11,188.26 117.11,190.32L117.11,196.34ZM119.87,196.34L119.87,190.32C119.87,188.26 121.14,187.05 122.19,186.02C123.23,187.05 124.51,188.26 124.51,190.32L124.51,196.34ZM127.26,196.34L127.26,190.32C127.26,188.26 128.54,187.05 129.58,186.02C130.63,187.05 131.91,188.26 131.91,190.32L131.91,196.34ZM134.66,196.34L134.66,190.32C134.66,188.26 135.94,187.05 136.98,186.02C138.02,187.05 139.3,188.26 139.3,190.32L139.3,196.34Z"/></g><path d="M88.39,217.84L111.61,217.84L115.05,223.43L84.95,223.43Z" fill="url(#cd-lock-foil-foil-emb)"/></g><path fill="url(#cd-lock-foil-foil)" d="M223.69 62.48Q223.69 66.03 221.77 69.62Q219.85 73.21 216.22 76.19Q212.59 79.16 207.4 80.98Q202.22 82.79 195.7 82.79Q184.87 82.79 177.03 78.11Q169.18 73.44 164.92 65.21Q160.65 56.99 160.65 46.32Q160.65 38.27 163.18 31.5Q165.71 24.73 170.28 19.72Q174.85 14.7 180.99 11.93Q187.12 9.16 194.34 9.16Q199.38 9.16 202.54 10.14Q205.69 11.13 207.49 12.15Q209.29 13.18 210.29 13.18Q211.58 13.18 212.24 12.27Q212.9 11.37 213.57 10.52Q214.24 9.67 215.53 9.67Q216.38 9.67 216.96 10.24Q217.53 10.81 217.96 12.13L223.23 29.38Q223.6 30.56 223.01 31.45Q222.42 32.34 221.27 32.58Q220.13 32.77 219.19 32.32Q218.24 31.87 217.7 30.64Q214.98 24.67 211.7 21.13Q208.42 17.6 204.62 16.05Q200.81 14.51 196.38 14.51Q191.89 14.51 188.16 16.53Q184.43 18.54 181.74 22.32Q179.04 26.09 177.54 31.35Q176.03 36.61 176.03 43.17Q176.03 53.24 179.16 60.22Q182.3 67.21 187.76 70.83Q193.22 74.45 200.18 74.45Q206.83 74.45 211.78 71.26Q216.73 68.08 219.45 62.31Q220.05 61.12 220.73 60.75Q221.41 60.38 222.21 60.5Q223.01 60.62 223.35 61.13Q223.69 61.65 223.69 62.48ZM263.47 73.8V71.27L263.03 71.09V44.23Q263.03 42.92 262.63 42.38Q262.24 41.84 261.42 41.69L258.71 41.49Q257.78 41.28 257.4 40.84Q257.02 40.4 257.02 39.69Q257.02 38.91 257.5 38.38Q257.97 37.85 259.29 37.41L268.59 34Q270.45 33.34 271.6 33.02Q272.74 32.71 273.77 32.71Q275.34 32.71 276.11 33.58Q276.89 34.45 276.89 35.86V72.97Q276.89 74.49 277.33 75.22Q277.78 75.95 278.67 76.24L280.62 76.74Q281.55 77.03 282.01 77.57Q282.47 78.12 282.47 78.84Q282.47 79.81 281.81 80.36Q281.15 80.91 279.76 80.91H269.79Q267.07 80.91 265.27 78.92Q263.47 76.93 263.47 73.8ZM231.5 67.03V44.23Q231.5 42.92 231.12 42.38Q230.73 41.84 229.86 41.69L227.21 41.49Q226.28 41.28 225.9 40.84Q225.52 40.4 225.52 39.69Q225.52 38.91 225.99 38.38Q226.46 37.85 227.78 37.41L237.03 34Q238.99 33.31 240.14 33.01Q241.3 32.71 242.1 32.71Q243.75 32.71 244.57 33.58Q245.39 34.45 245.39 35.86V65.02Q245.39 69.4 247.52 71.6Q249.65 73.81 253.24 73.81Q255.46 73.81 257.97 72.72Q260.47 71.63 263.16 69.35L265.18 67.6L267.45 69.95L265.48 71.68Q259.22 77.47 254.52 79.81Q249.82 82.15 245.71 82.15Q239.35 82.15 235.43 78.04Q231.5 73.94 231.5 67.03ZM306.85 54.45Q306.85 47.2 308.92 42.29Q310.99 37.38 314.31 34.9Q317.63 32.42 321.48 32.42Q326.26 32.42 328.86 35.13Q331.45 37.85 331.45 42.84Q331.45 47.25 329.62 49.45Q327.78 51.65 324.85 51.65Q321.9 51.65 320.35 50.06Q318.8 48.47 318.8 45.64V43.81Q318.77 42.29 318.06 41.49Q317.35 40.69 315.76 40.69Q313.98 40.69 312.34 42.16Q310.69 43.63 309.66 46.6Q308.62 49.57 308.62 54.21L306.85 54.45ZM307.83 35.83 308.62 47.23V72.97Q308.62 74.34 309.18 75.03Q309.75 75.71 311.23 75.96L315.55 76.62Q316.69 76.82 317.27 77.34Q317.85 77.86 317.85 78.81Q317.85 79.81 317.15 80.36Q316.46 80.91 315.05 80.91H291.86Q290.43 80.91 289.78 80.36Q289.13 79.81 289.13 78.84Q289.13 78.14 289.58 77.59Q290.03 77.05 290.95 76.76L292.96 76.24Q293.87 75.95 294.32 75.23Q294.76 74.51 294.76 72.97V44.28Q294.76 43.03 294.37 42.47Q293.97 41.91 293.1 41.76L290.44 41.58Q289.52 41.38 289.11 40.92Q288.71 40.47 288.71 39.78Q288.71 38.95 289.23 38.45Q289.75 37.94 291.02 37.46L300.06 34.16Q302.52 33.26 303.64 32.97Q304.76 32.69 305.43 32.69Q306.54 32.69 307.08 33.4Q307.62 34.11 307.83 35.83ZM354.05 54.45Q354.05 47.2 356.12 42.29Q358.19 37.38 361.51 34.9Q364.83 32.42 368.68 32.42Q373.46 32.42 376.06 35.13Q378.65 37.85 378.65 42.84Q378.65 47.25 376.82 49.45Q374.98 51.65 372.05 51.65Q369.1 51.65 367.55 50.06Q366 48.47 366 45.64V43.81Q365.97 42.29 365.26 41.49Q364.55 40.69 362.96 40.69Q361.18 40.69 359.54 42.16Q357.89 43.63 356.86 46.6Q355.82 49.57 355.82 54.21L354.05 54.45ZM355.03 35.83 355.82 47.23V72.97Q355.82 74.34 356.38 75.03Q356.95 75.71 358.43 75.96L362.75 76.62Q363.89 76.82 364.47 77.34Q365.05 77.86 365.05 78.81Q365.05 79.81 364.35 80.36Q363.66 80.91 362.25 80.91H339.06Q337.63 80.91 336.98 80.36Q336.33 79.81 336.33 78.84Q336.33 78.14 336.78 77.59Q337.23 77.05 338.15 76.76L340.16 76.24Q341.07 75.95 341.52 75.23Q341.96 74.51 341.96 72.97V44.28Q341.96 43.03 341.57 42.47Q341.17 41.91 340.3 41.76L337.64 41.58Q336.72 41.38 336.31 40.92Q335.91 40.47 335.91 39.78Q335.91 38.95 336.43 38.45Q336.95 37.94 338.22 37.46L347.26 34.16Q349.72 33.26 350.84 32.97Q351.96 32.69 352.63 32.69Q353.74 32.69 354.28 33.4Q354.82 34.11 355.03 35.83ZM413.56 73.67 406.24 87.06 385.81 41.78Q384.91 39.79 384.01 39.03Q383.11 38.28 381.16 37.75Q380.21 37.41 379.81 36.94Q379.41 36.46 379.41 35.63Q379.41 34.69 380.1 34.14Q380.8 33.59 382.01 33.59H404.33Q405.54 33.59 406.24 34.13Q406.93 34.67 406.93 35.61Q406.93 36.44 406.48 36.93Q406.03 37.41 404.9 37.69L403.04 38.05Q400.75 38.55 400.36 39.74Q399.97 40.94 401.22 43.92L413.56 73.67ZM404.18 88.92 407.35 81.08 409.12 77.62 422.3 44.53Q423.54 41.53 423.15 40.16Q422.76 38.78 420.4 38.26L418.38 37.81Q417.27 37.53 416.8 37Q416.32 36.46 416.32 35.61Q416.32 34.67 417.01 34.13Q417.71 33.59 418.92 33.59H433.12Q434.32 33.59 435.03 34.14Q435.73 34.69 435.73 35.63Q435.73 36.35 435.31 36.85Q434.89 37.36 433.78 37.78Q431.58 38.48 430.4 39.65Q429.22 40.81 428.11 43.58L410.14 87.84Q407.42 94.55 405.02 98.23Q402.62 101.92 399.9 103.33Q397.17 104.73 393.28 104.73Q387.49 104.73 384.17 101.65Q380.84 98.56 380.84 94.13Q380.84 90.96 382.37 89.14Q383.9 87.32 386.52 87.32Q389.03 87.32 390.39 88.86Q391.75 90.4 392.6 92.92L393.22 94.85Q393.63 96.6 394.52 97.51Q395.41 98.43 396.61 98.43Q397.82 98.43 398.9 97.71Q399.97 97 401.24 94.95Q402.51 92.9 404.18 88.92Z"/><path fill="url(#cd-lock-foil-foil)" d="M190.94 130.29Q190.94 129.78 191.5 129.59L192.22 129.42Q192.54 129.33 192.71 129.15Q192.87 128.97 192.87 128.67V114.95Q192.87 114.65 192.71 114.48Q192.54 114.3 192.22 114.2L191.5 114.03Q190.94 113.84 190.94 113.33Q190.94 113.04 191.14 112.88Q191.34 112.71 191.75 112.71H198.77Q201.19 112.71 203.16 113.42Q205.14 114.13 206.56 115.43Q207.98 116.72 208.74 118.49Q209.51 120.25 209.51 122.39Q209.51 124.85 208.36 126.78Q207.22 128.71 205.08 129.81Q202.95 130.91 199.97 130.91H191.75Q191.34 130.91 191.14 130.74Q190.94 130.57 190.94 130.29ZM199.56 129.56Q201.23 129.56 202.48 128.76Q203.74 127.97 204.44 126.36Q205.13 124.75 205.13 122.31Q205.13 120.4 204.66 118.88Q204.19 117.36 203.3 116.28Q202.4 115.2 201.14 114.63Q199.88 114.06 198.3 114.06H197.1V128.34Q197.1 128.97 197.45 129.27Q197.81 129.56 198.51 129.56H199.56ZM229.93 128.67Q229.93 128.97 230.1 129.15Q230.27 129.34 230.58 129.42L231.29 129.59Q231.85 129.78 231.85 130.29Q231.85 130.57 231.65 130.74Q231.46 130.91 231.04 130.91H224.59Q224.17 130.91 223.97 130.74Q223.77 130.57 223.77 130.29Q223.77 129.78 224.33 129.59L225.05 129.42Q225.38 129.34 225.54 129.15Q225.71 128.97 225.71 128.67V114.95Q225.71 114.65 225.54 114.47Q225.38 114.28 225.05 114.2L224.33 114.03Q223.77 113.84 223.77 113.33Q223.77 113.04 223.97 112.88Q224.17 112.71 224.59 112.71H231.04Q231.46 112.71 231.65 112.88Q231.85 113.04 231.85 113.33Q231.85 113.84 231.29 114.03L230.58 114.2Q230.27 114.28 230.1 114.47Q229.93 114.65 229.93 114.95V128.67ZM253.95 131.32Q252.91 131.32 252.15 131.07Q251.39 130.82 250.91 130.58Q250.44 130.34 250.19 130.34Q249.93 130.34 249.75 130.49Q249.58 130.64 249.42 130.84Q249.26 131.04 249.08 131.19Q248.89 131.35 248.65 131.35Q248.36 131.35 248.18 131.18Q247.99 131 247.92 130.61L247.05 126.34Q247 126.06 247.13 125.85Q247.25 125.64 247.54 125.53Q247.88 125.42 248.12 125.54Q248.36 125.67 248.53 126.02Q249.28 127.49 250.11 128.34Q250.95 129.19 251.85 129.56Q252.74 129.93 253.68 129.93Q254.98 129.93 255.74 129.25Q256.5 128.57 256.5 127.45Q256.51 126.71 256.16 126.11Q255.82 125.52 254.84 124.96Q253.86 124.4 251.96 123.8Q249.99 123.16 248.79 122.32Q247.59 121.48 247.06 120.35Q246.52 119.22 246.52 117.72Q246.52 116.14 247.28 114.93Q248.04 113.72 249.42 113.04Q250.8 112.37 252.63 112.37Q253.79 112.37 254.55 112.6Q255.32 112.84 255.81 113.08Q256.31 113.32 256.64 113.32Q256.94 113.32 257.11 113.07Q257.27 112.83 257.47 112.58Q257.66 112.33 258.02 112.33Q258.33 112.33 258.52 112.52Q258.72 112.71 258.86 113.23L260.09 117.49Q260.19 117.85 260.06 118.12Q259.94 118.4 259.63 118.51Q259.31 118.6 259.07 118.48Q258.82 118.35 258.65 118.04Q257.85 116.43 256.93 115.49Q256.01 114.55 255.03 114.15Q254.06 113.75 253.07 113.75Q251.77 113.75 251.01 114.49Q250.24 115.24 250.24 116.43Q250.24 117.15 250.59 117.77Q250.93 118.39 251.88 118.99Q252.83 119.58 254.66 120.25Q256.66 120.97 257.85 121.8Q259.04 122.63 259.56 123.68Q260.08 124.73 260.08 126.11Q260.07 127.54 259.35 128.73Q258.62 129.91 257.26 130.61Q255.9 131.32 253.95 131.32ZM277.6 112.71H286.72Q287.21 112.71 287.54 112.59Q287.86 112.47 288.11 112.35Q288.36 112.23 288.65 112.23Q289.09 112.23 289.32 112.45Q289.56 112.67 289.69 113.19L290.56 117.4Q290.64 117.78 290.5 118.02Q290.37 118.27 290.04 118.33Q289.74 118.39 289.5 118.28Q289.26 118.16 289.11 117.82Q288.42 116.3 287.93 115.51Q287.43 114.72 286.94 114.43Q286.45 114.13 285.77 114.13H284.28V128.67Q284.28 128.97 284.45 129.15Q284.62 129.34 284.93 129.42L285.65 129.59Q286.2 129.78 286.2 130.29Q286.2 130.91 285.39 130.91H278.94Q278.52 130.91 278.32 130.74Q278.12 130.57 278.12 130.29Q278.12 129.78 278.68 129.59L279.41 129.42Q279.73 129.34 279.89 129.15Q280.06 128.97 280.06 128.67V114.13H278.56Q277.89 114.13 277.39 114.43Q276.9 114.72 276.41 115.51Q275.92 116.31 275.23 117.82Q275.07 118.16 274.83 118.28Q274.59 118.39 274.29 118.33Q273.97 118.27 273.83 118.02Q273.69 117.78 273.77 117.4L274.63 113.19Q274.77 112.67 275 112.45Q275.24 112.23 275.69 112.23Q275.97 112.23 276.22 112.35Q276.47 112.47 276.79 112.59Q277.12 112.71 277.6 112.71ZM320.94 118.98Q320.94 120.23 320.38 121.24Q319.82 122.25 318.79 122.93Q317.76 123.61 316.34 123.87Q315.8 123.97 315.34 124.08Q314.88 124.18 314.42 124.27Q313.96 124.35 313.39 124.35Q312.57 124.35 311.84 124.23Q311.11 124.12 310.51 123.91Q309.91 123.7 309.45 123.4L309.52 122.19Q309.89 122.44 310.37 122.62Q310.86 122.8 311.44 122.9Q312.02 123 312.66 123Q314.51 123 315.54 122Q316.58 121.01 316.58 119.05Q316.58 117.57 315.97 116.42Q315.36 115.27 314.24 114.62Q313.12 113.96 311.62 113.96H310.55V128.67Q310.55 128.97 310.69 129.15Q310.83 129.34 311.11 129.42L311.96 129.59Q312.28 129.73 312.4 129.88Q312.52 130.03 312.52 130.29Q312.52 130.91 311.7 130.91H305.2Q304.79 130.91 304.59 130.74Q304.39 130.57 304.39 130.29Q304.39 129.78 304.95 129.59L305.67 129.42Q306 129.33 306.16 129.15Q306.32 128.97 306.32 128.67V114.95Q306.32 114.65 306.16 114.47Q306 114.28 305.67 114.2L304.95 114.03Q304.39 113.84 304.39 113.33Q304.39 113.04 304.59 112.88Q304.79 112.71 305.2 112.71H311.77Q314.73 112.71 316.77 113.51Q318.81 114.31 319.88 115.73Q320.94 117.14 320.94 118.98ZM313.29 123.8 317.43 123.33 320.74 128.68Q320.98 129.05 321.23 129.26Q321.47 129.47 321.89 129.59Q322.28 129.72 322.42 129.88Q322.57 130.03 322.57 130.29Q322.57 130.57 322.37 130.74Q322.16 130.91 321.74 130.91H316.1Q315.31 130.91 315.31 130.29Q315.31 130.12 315.4 129.99Q315.49 129.87 315.68 129.78L316.05 129.68Q316.32 129.55 316.36 129.37Q316.39 129.19 316.21 128.86L313.29 123.8ZM342.6 128.67Q342.6 128.97 342.77 129.15Q342.94 129.34 343.25 129.42L343.96 129.59Q344.52 129.78 344.52 130.29Q344.52 130.57 344.32 130.74Q344.13 130.91 343.7 130.91H337.26Q336.84 130.91 336.64 130.74Q336.44 130.57 336.44 130.29Q336.44 129.78 337 129.59L337.72 129.42Q338.05 129.34 338.21 129.15Q338.38 128.97 338.38 128.67V114.95Q338.38 114.65 338.21 114.47Q338.05 114.28 337.72 114.2L337 114.03Q336.44 113.84 336.44 113.33Q336.44 113.04 336.64 112.88Q336.84 112.71 337.26 112.71H343.7Q344.13 112.71 344.32 112.88Q344.52 113.04 344.52 113.33Q344.52 113.84 343.96 114.03L343.25 114.2Q342.94 114.28 342.77 114.47Q342.6 114.65 342.6 114.95V128.67ZM375.63 126.07Q375.63 127 375.12 127.95Q374.62 128.89 373.66 129.67Q372.71 130.45 371.35 130.93Q370 131.4 368.29 131.4Q365.46 131.4 363.41 130.19Q361.36 128.97 360.25 126.83Q359.13 124.69 359.13 121.92Q359.13 119.82 359.8 118.06Q360.46 116.3 361.65 115Q362.85 113.69 364.45 112.97Q366.05 112.25 367.93 112.25Q369.23 112.25 370.04 112.5Q370.86 112.75 371.32 113.01Q371.79 113.27 372.06 113.27Q372.4 113.27 372.58 113.04Q372.76 112.81 372.94 112.59Q373.13 112.37 373.47 112.37Q373.7 112.37 373.86 112.53Q374.01 112.68 374.13 113.04L375.5 117.54Q375.59 117.86 375.43 118.1Q375.27 118.35 374.96 118.41Q374.65 118.47 374.39 118.35Q374.13 118.22 373.98 117.89Q373.28 116.33 372.44 115.42Q371.59 114.51 370.62 114.11Q369.64 113.72 368.52 113.72Q367.38 113.72 366.44 114.23Q365.5 114.75 364.82 115.71Q364.14 116.68 363.76 118.03Q363.38 119.38 363.38 121.06Q363.38 123.67 364.18 125.46Q364.97 127.26 366.37 128.19Q367.76 129.12 369.53 129.12Q371.22 129.12 372.49 128.3Q373.75 127.49 374.46 126.01Q374.63 125.69 374.81 125.59Q375 125.49 375.22 125.52Q375.44 125.55 375.53 125.7Q375.63 125.84 375.63 126.07ZM392.43 112.71H401.54Q402.04 112.71 402.36 112.59Q402.68 112.47 402.93 112.35Q403.19 112.23 403.48 112.23Q403.92 112.23 404.15 112.45Q404.38 112.67 404.52 113.19L405.38 117.4Q405.47 117.78 405.33 118.02Q405.19 118.27 404.86 118.33Q404.56 118.39 404.32 118.28Q404.09 118.16 403.94 117.82Q403.25 116.3 402.75 115.51Q402.25 114.72 401.77 114.43Q401.28 114.13 400.6 114.13H399.11V128.67Q399.11 128.97 399.28 129.15Q399.45 129.34 399.76 129.42L400.47 129.59Q401.03 129.78 401.03 130.29Q401.03 130.91 400.21 130.91H393.77Q393.35 130.91 393.15 130.74Q392.95 130.57 392.95 130.29Q392.95 129.78 393.51 129.59L394.23 129.42Q394.56 129.34 394.72 129.15Q394.88 128.97 394.88 128.67V114.13H393.39Q392.71 114.13 392.22 114.43Q391.73 114.72 391.24 115.51Q390.74 116.31 390.06 117.82Q389.89 118.16 389.65 118.28Q389.41 118.39 389.11 118.33Q388.79 118.27 388.66 118.02Q388.52 117.78 388.59 117.4L389.46 113.19Q389.6 112.67 389.83 112.45Q390.06 112.23 390.51 112.23Q390.79 112.23 391.04 112.35Q391.29 112.47 391.62 112.59Q391.94 112.71 392.43 112.71Z"/><path fill="url(#cd-lock-foil-foil)" d="M163.88,116.85 L166.68,121.55 L163.88,126.25 L161.08,121.55ZM432.53,116.85 L435.33,121.55 L432.53,126.25 L429.73,121.55Z"/><path fill="#F7D98A" d="M160.68 167.25V161.11H161.69V167.25H160.68ZM167.63 167.25V161.11H168.68L171.64 165.92H171.39V161.11H172.4V167.25H171.33L168.4 162.43H168.64V167.25H167.63ZM178.33 167.25V161.11H180.09Q181.61 161.11 182.44 161.93Q183.28 162.74 183.28 164.23Q183.28 165.69 182.45 166.47Q181.63 167.25 180.08 167.25H178.33ZM179.35 166.31H179.98Q180.7 166.31 181.21 166.12Q181.72 165.92 181.98 165.46Q182.25 164.99 182.25 164.19Q182.25 163.41 181.99 162.93Q181.73 162.46 181.24 162.26Q180.76 162.05 180.07 162.05H179.35V166.31ZM188.96 167.25V161.11H189.98V167.25H188.96ZM195.38 167.25 197.81 161.11H198.58L201 167.25H199.89L198.2 162.6L196.49 167.25H195.38ZM196.89 165.97 197.21 165.06H199.18L199.51 165.97H196.89ZM206.4 167.25V161.11H207.46L210.41 165.92H210.16V161.11H211.18V167.25H210.11L207.17 162.43H207.42V167.25H206.4ZM224.88 165.36V164.08L227.7 161.11H229.06L224.88 165.36ZM224.08 167.25V161.11H225.09V167.25H224.08ZM227.88 167.25 225.89 164.09 226.65 163.38 229.08 167.25H227.88ZM234.5 167.25V161.11H235.52V167.25H234.5ZM242.89 167.25V162.02H240.93V161.11H245.86V162.02H243.91V167.25H242.89ZM253.66 167.37Q252.8 167.37 252.15 166.97Q251.49 166.58 251.13 165.85Q250.76 165.13 250.76 164.18Q250.76 163.22 251.13 162.5Q251.49 161.79 252.15 161.39Q252.8 160.99 253.66 160.99Q254.62 160.99 255.32 161.46Q256.02 161.94 256.33 162.78L255.37 163.13Q255.16 162.58 254.73 162.27Q254.29 161.96 253.66 161.96Q253.09 161.96 252.67 162.23Q252.24 162.5 252.01 162.99Q251.78 163.49 251.78 164.18Q251.78 164.86 252.01 165.36Q252.24 165.86 252.67 166.13Q253.09 166.4 253.66 166.4Q254.29 166.4 254.73 166.09Q255.16 165.78 255.37 165.23L256.33 165.57Q256.02 166.41 255.32 166.89Q254.62 167.37 253.66 167.37ZM261.92 167.25V161.11H262.94V163.63H265.71V161.11H266.72V167.25H265.71V164.57H262.94V167.25H261.92ZM272.65 167.25V161.11H276.72V162.02H273.67V163.65H276.49V164.56H273.67V166.34H276.72V167.25H272.65ZM282.43 167.25V161.11H283.49L286.44 165.92H286.19V161.11H287.21V167.25H286.14L283.21 162.43H283.45V167.25H282.43ZM300.33 164.73V163.62H301.35V164.73H300.33ZM314.53 167.25V161.11H315.55V166.34H318.2V167.25H314.53ZM323.62 167.25V161.11H324.64V167.25H323.62ZM332 167.25V162.02H330.05V161.11H334.98V162.02H333.03V167.25H332ZM341.83 167.25V162.02H339.88V161.11H344.81V162.02H342.86V167.25H341.83ZM350.22 167.25V161.11H351.24V166.34H353.89V167.25H350.22ZM359.31 167.25V161.11H363.38V162.02H360.33V163.65H363.15V164.56H360.33V166.34H363.38V167.25H359.31ZM376.06 167.25V161.11H380.13V162.02H377.07V163.65H379.9V164.56H377.07V166.34H380.13V167.25H376.06ZM385.84 167.25V161.11H386.86V166.34H389.51V167.25H385.84ZM394.93 167.25V161.11H396.42L398.14 165.7H397.96L399.67 161.11H401.16V167.25H400.14V162.3L400.23 162.32L398.54 166.71H397.55L395.85 162.32L395.94 162.3V167.25H394.93ZM406.69 168.57 407.36 165.9H408.45L407.33 168.57H406.69ZM422.29 167.25V162.02H420.33V161.11H425.26V162.02H423.32V167.25H422.29ZM430.19 167.25 432.25 164.18 430.21 161.11H431.42L432.96 163.47L434.49 161.11H435.71L433.66 164.18L435.73 167.25H434.51L432.95 164.92L431.4 167.25H430.19Z"/><path stroke="url(#cd-lock-foil-foil)" stroke-width="0.8" fill="none" d="M160.68,145.91 H435.73"/></svg>
