<svg xmlns="http://www.w3.org/2000/svg" viewBox="0 0 64 64" width="64" height="64" fill="none" stroke="currentColor" stroke-width="3" stroke-linecap="round" stroke-linejoin="round"><title>Extra hot</title><path d="M31.07,13.23c2.16,-2.52 5.07,-3.4 7.96,-2.26"/><path d="M9.18,40.25c-3.07,1.05 -5.95,1.1 -8.01,0.09c2.8,-0.69 5.44,-2.06 7.63,-4.92c4.74,-6.18 10.41,-14.8 16.2,-22.44c0.24,0.27 0.46,0.58 0.67,0.9c-0.72,0.4 -1.23,0.99 -1.41,1.79c0.64,-0.2 1.23,-0.07 1.81,0.18c-1.05,4.88 -1.96,9.98 -2.83,14.83c-4.71,4.6 -9.54,7.89 -14.07,9.58z"/><path d="M23.45,12.06c1.56,-2.03 5.17,-0.81 7.88,1.38c-2.1,-0.41 -4.27,-0.33 -5.65,0.45c-0.59,-0.87 -1.19,-1.67 -2.23,-1.82z"/><path d="M32.93,13.23c-2.16,-2.52 -5.07,-3.4 -7.96,-2.26"/><path d="M55.19,35.42c2.19,2.86 4.83,4.23 7.63,4.92c-2.06,1.01 -4.94,0.95 -8.01,-0.09c-4.53,-1.69 -9.36,-4.98 -14.07,-9.58c-0.87,-4.85 -1.78,-9.95 -2.83,-14.83c0.58,-0.25 1.17,-0.37 1.81,-0.18c-0.18,-0.8 -0.69,-1.39 -1.41,-1.79c0.22,-0.32 0.43,-0.62 0.67,-0.9c5.79,7.64 11.46,16.26 16.2,22.44z"/><path d="M40.55,12.06c-1.04,0.15 -1.64,0.95 -2.23,1.82c-1.38,-0.77 -3.55,-0.86 -5.65,-0.45c2.71,-2.19 6.33,-3.41 7.88,-1.38z"/><path d="M31.68,13.51c0.89,-3.2 3.16,-5.23 6.25,-5.41"/><path d="M23.26,47.25c-2.34,2.25 -4.93,3.52 -7.22,3.47c2.24,-1.81 4.06,-4.17 4.84,-7.69c1.69,-7.61 3.18,-17.82 5.2,-27.19c0.33,0.14 0.66,0.33 0.99,0.53c-0.48,0.67 -0.7,1.42 -0.52,2.22c0.48,-0.43 1.04,-0.58 1.64,-0.6c0.88,5.3 2.18,10.2 3.81,14.54c-2.33,6.2 -5.33,11.25 -8.74,14.72z"/><path d="M24.27,15.67c0.55,-2.5 4.34,-2.92 7.73,-2.09c-2.08,0.52 -4,1.51 -4.93,2.79c-0.9,-0.54 -1.79,-1.01 -2.79,-0.71z"/><path d="M32.32,13.51c-0.89,-3.2 -3.16,-5.23 -6.25,-5.41"/><path d="M43.12,43.03c0.78,3.51 2.59,5.88 4.84,7.69c-2.29,0.05 -4.88,-1.22 -7.22,-3.47c-5.79,-5.89 -10.42,-16.39 -12.55,-29.26c1.63,-0.07 3.56,0.75 4.97,-0.77c1.89,0.77 3.29,-0.72 4.76,-1.37c2.02,9.37 3.51,19.58 5.2,27.19z"/><path d="M39.73,15.67c-1.07,-4.83 -14.25,-1.91 -13.18,2.92c1.77,-1.59 4.68,0.71 6.61,-1.37c2.64,1.08 4.3,-2.24 6.57,-1.55z"/></svg>
