<svg xmlns="http://www.w3.org/2000/svg" viewBox="0 0 800 800" width="800" height="800" role="img" aria-labelledby="ds-t"><style>.steam path{transform-box:fill-box;transform-origin:50% 100%;animation:cdx-steam 3.6s ease-in-out infinite}.steam path:nth-child(2){animation-delay:-1.2s;animation-duration:4.1s}.steam path:nth-child(3){animation-delay:-2.3s;animation-duration:3.3s}.sparkle{transform-box:fill-box;transform-origin:50% 50%;animation:cdx-tw 2.8s ease-in-out infinite}.sparkle:nth-of-type(2n){animation-delay:-1s;animation-duration:3.4s}.sparkle:nth-of-type(3n){animation-delay:-1.9s}@keyframes cdx-steam{0%{opacity:0;transform:translateY(14px) scaleY(.85)}30%{opacity:1}70%{opacity:.85}100%{opacity:0;transform:translateY(-26px) scaleY(1.1)}}@keyframes cdx-tw{0%,100%{transform:scale(.6) rotate(0);opacity:.55}50%{transform:scale(1.08) rotate(20deg);opacity:1}}@media (prefers-reduced-motion:reduce){*{animation:none!important}}</style><title id="ds-t">Dal tadka and saag paneer</title><defs><filter id="ds-sh" x="0" y="0" width="800" height="800" filterUnits="userSpaceOnUse" color-interpolation-filters="sRGB"><feFlood flood-color="#1D1147"/><feComposite in2="SourceAlpha" operator="in"/><feOffset dx="14" dy="14" result="s"/><feMerge><feMergeNode in="s"/><feMergeNode in="SourceGraphic"/></feMerge></filter><path id="ds-s" d="M342,318C347,449 424,486 520,486C616,486 693,449 698,318A178,66 0 0 0 342,318Z"/><clipPath id="ds-sc"><use href="#ds-s"/></clipPath><path id="ds-d" d="M104,470C109,620 202,662 318,662C434,662 527,620 532,470A214,82 0 0 0 104,470Z"/><clipPath id="ds-dc"><use href="#ds-d"/></clipPath></defs><g stroke="#1D1147" stroke-width="4" stroke-linejoin="round" stroke-linecap="round"><g class="dish" filter="url(#ds-sh)"><path d="M459,472L466,499Q520,512 574,499L581,472Z" fill="#B30A62"/><use href="#ds-s" fill="#E4147E"/><g clip-path="url(#ds-sc)"><ellipse cx="730" cy="469" rx="187" ry="269" fill="#B30A62" stroke="none"/><circle cx="366" cy="422" r="9" fill="#FFB000" stroke-width="3"/><circle cx="366" cy="422" r="3.4" fill="#00A8A0" stroke="none"/><circle cx="384" cy="441" r="9" fill="#FFB000" stroke-width="3"/><circle cx="384" cy="441" r="3.4" fill="#00A8A0" stroke="none"/><circle cx="410" cy="456" r="9" fill="#FFB000" stroke-width="3"/><circle cx="410" cy="456" r="3.4" fill="#00A8A0" stroke="none"/><circle cx="443" cy="468" r="9" fill="#FFB000" stroke-width="3"/><circle cx="443" cy="468" r="3.4" fill="#00A8A0" stroke="none"/><circle cx="480" cy="475" r="9" fill="#FFB000" stroke-width="3"/><circle cx="480" cy="475" r="3.4" fill="#00A8A0" stroke="none"/><circle cx="520" cy="478" r="9" fill="#FFB000" stroke-width="3"/><circle cx="520" cy="478" r="3.4" fill="#00A8A0" stroke="none"/><circle cx="560" cy="475" r="9" fill="#FFB000" stroke-width="3"/><circle cx="560" cy="475" r="3.4" fill="#00A8A0" stroke="none"/><circle cx="597" cy="468" r="9" fill="#FFB000" stroke-width="3"/><circle cx="597" cy="468" r="3.4" fill="#00A8A0" stroke="none"/><circle cx="630" cy="456" r="9" fill="#FFB000" stroke-width="3"/><circle cx="630" cy="456" r="3.4" fill="#00A8A0" stroke="none"/><circle cx="656" cy="441" r="9" fill="#FFB000" stroke-width="3"/><circle cx="656" cy="441" r="3.4" fill="#00A8A0" stroke="none"/><circle cx="674" cy="422" r="9" fill="#FFB000" stroke-width="3"/><circle cx="674" cy="422" r="3.4" fill="#00A8A0" stroke="none"/><path d="M360,355Q367,422 413,456" fill="none" stroke="#FFFFFF" stroke-width="11"/><path d="M431,466l10.7,5" fill="none" stroke="#FFFFFF" stroke-width="11"/></g><use href="#ds-s" fill="none"/><ellipse cx="520" cy="318" rx="178" ry="66" fill="#F57DB8"/><ellipse cx="520" cy="320" rx="167" ry="59" fill="#B30A62"/><path d="M682,310C682,318 680,330 668,338C657,346 632,354 615,359C599,365 589,371 568,373C547,375 516,374 490,372C464,369 431,364 411,358C391,352 379,344 371,336C363,328 363,320 363,311C363,302 362,291 371,283C380,275 398,267 417,262C437,257 465,255 489,253C513,252 541,250 562,252C583,253 596,258 614,264C632,270 657,280 669,288C680,296 683,301 682,310Z" fill="#2A7A37"/><path d="M643,305C644,312 637,323 625,329C614,336 591,343 574,346C556,349 542,348 519,348C497,347 456,346 437,341C417,337 411,329 402,322C394,316 388,311 387,304C386,297 389,287 398,281C407,276 423,273 441,269C459,265 483,257 505,257C528,257 556,264 575,269C593,274 606,279 617,285C628,291 642,297 643,305Z" fill="#3FA34D" stroke="none"/><ellipse cx="620" cy="344" rx="8.5" ry="4.3" fill="#2A7A37" stroke="none" transform="rotate(9.4 620 344)"/><ellipse cx="554" cy="300" rx="12.8" ry="5.8" fill="#2A7A37" stroke="none" transform="rotate(-13.7 554 300)"/><ellipse cx="499" cy="306" rx="13.8" ry="7" fill="#2A7A37" stroke="none" transform="rotate(1.8 499 306)"/><ellipse cx="502" cy="297" rx="8.3" ry="4.1" fill="#86CF5A" stroke="none" transform="rotate(-7.3 502 297)"/><ellipse cx="487" cy="340" rx="12.2" ry="5.7" fill="#86CF5A" stroke="none" transform="rotate(-19 487 340)"/><ellipse cx="475" cy="288" rx="12.1" ry="7" fill="#2A7A37" stroke="none" transform="rotate(-12.7 475 288)"/><ellipse cx="606" cy="334" rx="13.9" ry="6.7" fill="#2A7A37" stroke="none" transform="rotate(11.6 606 334)"/><ellipse cx="481" cy="347" rx="15.7" ry="4.5" fill="#2A7A37" stroke="none" transform="rotate(8.6 481 347)"/><ellipse cx="506" cy="315" rx="11.9" ry="6.8" fill="#2A7A37" stroke="none" transform="rotate(13.3 506 315)"/><ellipse cx="481" cy="340" rx="15.2" ry="5.4" fill="#2A7A37" stroke="none" transform="rotate(16.8 481 340)"/><ellipse cx="566" cy="312" rx="9.8" ry="5" fill="#2A7A37" stroke="none" transform="rotate(-13.4 566 312)"/><ellipse cx="609" cy="297" rx="15.3" ry="4.9" fill="#2A7A37" stroke="none" transform="rotate(8.2 609 297)"/><path d="M410,322C420,288 500,282 530,300S590,328 630,308" fill="none" stroke="#1D1147" stroke-width="13"/><path d="M410,322C420,288 500,282 530,300S590,328 630,308" fill="none" stroke="#FFFFFF" stroke-width="6"/><path d="M431,284Q432,279 437,279L468,282Q473,282 473,287L473,303Q473,308 472,313L469,326Q468,331 463,331L432,328Q427,328 427,323L427,307Q427,302 428,297Z" fill="#F7D69A"/><path d="M468,308Q468,305 465,305L429,302Q427,302 427,304L427,325Q427,328 429,328L465,331Q468,331 468,329Z" fill="#E9B25E" stroke="none"/><path d="M469,301Q468,305 464,305L431,302Q427,302 428,298L431,283Q432,279 436,279L469,282Q473,282 472,286Z" fill="#FFF4DC" stroke="none"/><path d="M431,284Q432,279 437,279L468,282Q473,282 473,287L473,303Q473,308 472,313L469,326Q468,331 463,331L432,328Q427,328 427,323L427,307Q427,302 428,297Z" fill="none"/><path d="M473,282L468,305L427,302M468,305L468,331" fill="none" stroke="#1D1147" stroke-width="3"/><ellipse cx="442" cy="288" rx="4.2" ry="2.1" fill="#FFB000" stroke="none" transform="rotate(-20 442 288)"/><path d="M510,259Q514,255 519,257L547,266Q552,268 552,273L552,290Q552,295 548,298L534,312Q530,316 525,314L497,305Q492,304 492,298L492,282Q492,276 496,273Z" fill="#F7D69A"/><path d="M530,291Q530,289 527,288L495,277Q492,276 492,279L492,301Q492,304 495,305L527,315Q530,316 530,313Z" fill="#E9B25E" stroke="none"/><path d="M533,286Q530,289 526,287L496,278Q492,276 495,274L511,258Q514,255 518,257L548,266Q552,268 549,270Z" fill="#FFF4DC" stroke="none"/><path d="M510,259Q514,255 519,257L547,266Q552,268 552,273L552,290Q552,295 548,298L534,312Q530,316 525,314L497,305Q492,304 492,298L492,282Q492,276 496,273Z" fill="none"/><path d="M552,268L530,289L492,276M530,289L530,316" fill="none" stroke="#1D1147" stroke-width="3"/><ellipse cx="514" cy="268" rx="4.4" ry="2.2" fill="#FFB000" stroke="none" transform="rotate(-20 514 268)"/><path d="M602,283Q607,283 609,287L614,300Q615,305 615,309L615,325Q615,329 611,330L582,333Q577,334 575,329L570,317Q569,312 569,307L569,292Q569,287 573,287Z" fill="#F7D69A"/><path d="M577,312Q577,309 576,307L569,290Q569,287 569,290L569,310Q569,312 569,315L576,332Q577,334 577,332Z" fill="#E9B25E" stroke="none"/><path d="M614,301Q615,305 612,305L581,309Q577,309 575,306L570,291Q569,287 572,287L603,283Q607,283 609,286Z" fill="#FFF4DC" stroke="none"/><path d="M602,283Q607,283 609,287L614,300Q615,305 615,309L615,325Q615,329 611,330L582,333Q577,334 575,329L570,317Q569,312 569,307L569,292Q569,287 573,287Z" fill="none"/><path d="M615,305L577,309L569,287M577,309L577,334" fill="none" stroke="#1D1147" stroke-width="3"/><ellipse cx="585" cy="292" rx="4" ry="2" fill="#FFB000" stroke="none" transform="rotate(-20 585 292)"/><path d="M497,308Q502,306 506,309L523,321Q527,324 527,329L527,345Q527,350 523,352L499,362Q494,364 490,361L473,349Q469,346 469,341L469,325Q469,320 473,318Z" fill="#F7D69A"/><path d="M494,341Q494,338 492,337L471,321Q469,320 469,323L469,344Q469,346 471,348L492,363Q494,364 494,362Z" fill="#E9B25E" stroke="none"/><path d="M498,337Q494,338 491,336L472,322Q469,320 473,318L498,307Q502,306 505,308L524,322Q527,324 523,326Z" fill="#FFF4DC" stroke="none"/><path d="M497,308Q502,306 506,309L523,321Q527,324 527,329L527,345Q527,350 523,352L499,362Q494,364 490,361L473,349Q469,346 469,341L469,325Q469,320 473,318Z" fill="none"/><path d="M527,324L494,338L469,320M494,338L494,364" fill="none" stroke="#1D1147" stroke-width="3"/><ellipse cx="490" cy="318" rx="4.2" ry="2.1" fill="#FFB000" stroke="none" transform="rotate(-20 490 318)"/><path d="M628,313Q630,310 634,311L658,316Q662,316 662,320L662,333Q662,337 659,341L652,352Q650,355 646,354L622,350Q618,349 618,345L618,332Q618,328 621,324Z" fill="#F7D69A"/><path d="M650,336Q650,334 648,334L620,328Q618,328 618,330L618,347Q618,349 620,349L648,355Q650,355 650,353Z" fill="#E9B25E" stroke="none"/><path d="M652,331Q650,334 647,333L622,328Q618,328 620,325L628,313Q630,310 633,311L658,316Q662,316 660,319Z" fill="#FFF4DC" stroke="none"/><path d="M628,313Q630,310 634,311L658,316Q662,316 662,320L662,333Q662,337 659,341L652,352Q650,355 646,354L622,350Q618,349 618,345L618,332Q618,328 621,324Z" fill="none"/><path d="M662,316L650,334L618,328M650,334L650,355" fill="none" stroke="#1D1147" stroke-width="3"/><ellipse cx="634" cy="319" rx="3.4" ry="1.7" fill="#FFB000" stroke="none" transform="rotate(-20 634 319)"/><path d="M480,266l13.9,-8" fill="none" stroke="#FFD45E" stroke-width="5"/><path d="M560,262l15,5.5" fill="none" stroke="#FFD45E" stroke-width="5"/><path d="M620,288l10.3,-12.3" fill="none" stroke="#FFD45E" stroke-width="5"/><path d="M420,306l12.3,10.3" fill="none" stroke="#FFD45E" stroke-width="5"/><path d="M342,318A178,66 0 0 0 698,318L687,320A167,59 0 0 1 353,320Z" fill="#F57DB8"/><path d="M361,346Q413,377 481,382" fill="none" stroke="#FFFFFF" stroke-width="5"/><path d="M245,648L253,675Q318,688 383,675L391,648Z" fill="#00807A"/><use href="#ds-d" fill="#00A8A0"/><g clip-path="url(#ds-dc)"><ellipse cx="571" cy="643" rx="225" ry="307" fill="#00807A" stroke="none"/><path d="M94,388L94,483Q103,512 106,503Q115,532 125,522Q140,549 155,538Q174,564 194,551Q217,575 241,560Q266,582 292,565Q318,584 344,565Q370,582 395,560Q419,575 442,551Q462,564 481,538Q496,549 511,522Q521,532 530,503Q533,512 536,483L542,388Z" fill="#E4147E" stroke-width="3.5"/><circle cx="103" cy="499" r="3.6" fill="#FFF4DC" stroke="none"/><circle cx="115" cy="518" r="3.6" fill="#FFF4DC" stroke="none"/><circle cx="140" cy="535" r="3.6" fill="#FFF4DC" stroke="none"/><circle cx="174" cy="550" r="3.6" fill="#FFF4DC" stroke="none"/><circle cx="217" cy="561" r="3.6" fill="#FFF4DC" stroke="none"/><circle cx="266" cy="568" r="3.6" fill="#FFF4DC" stroke="none"/><circle cx="318" cy="571" r="3.6" fill="#FFF4DC" stroke="none"/><circle cx="370" cy="568" r="3.6" fill="#FFF4DC" stroke="none"/><circle cx="419" cy="561" r="3.6" fill="#FFF4DC" stroke="none"/><circle cx="462" cy="550" r="3.6" fill="#FFF4DC" stroke="none"/><circle cx="496" cy="535" r="3.6" fill="#FFF4DC" stroke="none"/><circle cx="521" cy="518" r="3.6" fill="#FFF4DC" stroke="none"/><circle cx="533" cy="499" r="3.6" fill="#FFF4DC" stroke="none"/><path d="M125,512Q134,589 190,627" fill="none" stroke="#FFFFFF" stroke-width="11"/><path d="M211,639l12.8,5.8" fill="none" stroke="#FFFFFF" stroke-width="11"/></g><use href="#ds-d" fill="none"/><ellipse cx="318" cy="470" rx="214" ry="82" fill="#4FD3C8"/><ellipse cx="318" cy="472" rx="201" ry="73" fill="#00807A"/><ellipse cx="318" cy="474" rx="198" ry="70" fill="#E58A00" stroke="none"/><ellipse cx="312" cy="470" rx="184" ry="60" fill="#FFB000" stroke="none"/><path d="M161,476A157,50 0 0 0 457,484" fill="none" stroke="#FFD45E" stroke-width="4"/><path d="M196,476A122,39 0 0 0 426,484" fill="none" stroke="#FFD45E" stroke-width="4"/><path d="M392,467C389,472 388,477 383,481C377,485 373,489 360,492C347,495 319,501 303,500C288,500 276,494 265,491C253,488 241,486 235,482C229,478 231,474 228,469C226,464 213,458 219,453C225,447 249,441 265,439C280,437 299,440 314,441C329,441 341,439 355,441C369,443 393,448 399,453C405,457 394,462 392,467Z" fill="#FF6A13" stroke-width="3"/><path d="M313,470C313,470 313,470 313,470C313,470 313,470 313,470C313,470 313,470 312,470C312,470 311,470 311,470C310,470 309,471 308,471C307,471 306,471 305,471C303,471 302,471 301,471C299,471 298,470 297,470C295,470 294,470 293,469C291,469 290,468 289,468C288,467 287,467 286,466C286,466 285,465 285,465C285,465 285,465 285,465C285,465 285,465 285,465C285,465 286,465 286,464C287,464 288,463 289,463C291,462 292,461 294,461C296,460 298,460 301,460C303,459 306,459 309,459C311,459 314,458 317,458C320,458 323,459 326,459C330,459 333,460 336,460C339,461 341,461 344,462C347,463 349,464 351,465C353,466 355,467 357,468C358,469 359,470 359,470C360,471 360,471 360,471C360,471 360,471 359,471C359,472 359,472 358,473C357,474 355,475 353,476C351,477 348,478 345,479C342,480 339,481 335,482C331,482 327,483 322,484C318,484 313,484 308,484C304,485 299,484 294,484C289,484 284,483 279,483C274,482 269,481 265,480C261,479 257,478 253,477C249,475 246,474 244,472C241,471 239,469 238,468C236,467 236,466 235,465C235,465 235,465 236,465C236,464 236,464 237,463C238,462 239,461 241,459C244,458 247,456 250,455C254,453 258,452 263,451C268,449 278,452 280,447C282,443 279,427 275,424C271,421 263,426 257,428C252,430 246,431 241,434C237,436 232,438 229,441C225,443 221,446 219,450C217,453 215,457 214,461C214,465 214,470 216,474C218,478 221,481 223,484C226,486 230,488 234,490C238,492 242,494 246,496C251,497 256,498 261,499C266,500 271,501 277,502C282,502 287,503 293,503C298,503 304,503 309,503C314,502 320,502 324,501C329,500 334,500 338,499C343,498 347,496 351,495C354,494 358,492 361,490C364,489 366,487 368,485C371,483 373,480 374,478C375,475 375,471 374,469C374,466 372,463 371,461C369,459 367,457 364,456C362,454 359,453 356,452C354,451 351,450 347,449C344,448 341,448 338,447C334,447 331,447 327,447C324,446 320,446 317,447C314,447 311,447 307,447C304,448 301,448 299,449C296,449 293,450 291,451C289,452 287,452 285,453C283,454 281,455 280,457C279,458 278,459 277,461C276,462 276,464 276,466C277,468 278,469 279,470C279,472 281,472 282,473C283,474 285,474 286,475C288,475 289,476 291,476C292,476 294,477 296,477C297,477 299,477 301,477C302,477 304,477 305,477C306,476 308,476 309,476C310,476 311,475 312,475C313,474 314,474 315,474C315,473 316,473 316,472C317,471 317,470 316,469C316,469 316,468 315,468C315,468 313,470 313,470Z" fill="#D62839" stroke-width="3.5"/><path d="M317,452C322,453 338,453 346,456C354,458 362,462 365,466C368,469 368,475 363,479C358,483 348,488 337,490C325,493 308,494 293,493C279,493 261,490 250,486C238,482 230,472 226,470" fill="none" stroke="#EF5A4E" stroke-width="4" stroke-dasharray="10 18"/><ellipse cx="272" cy="446" rx="5" ry="2.2" fill="#5C1F10" stroke="none" transform="rotate(15.1 272 446)"/><ellipse cx="207" cy="470" rx="5" ry="2.2" fill="#5C1F10" stroke="none" transform="rotate(-13.4 207 470)"/><ellipse cx="203" cy="468" rx="5" ry="2.2" fill="#5C1F10" stroke="none" transform="rotate(-46 203 468)"/><ellipse cx="301" cy="440" rx="5" ry="2.2" fill="#5C1F10" stroke="none" transform="rotate(-41 301 440)"/><ellipse cx="298" cy="489" rx="5" ry="2.2" fill="#5C1F10" stroke="none" transform="rotate(-38 298 489)"/><ellipse cx="246" cy="476" rx="5" ry="2.2" fill="#5C1F10" stroke="none" transform="rotate(45 246 476)"/><ellipse cx="338" cy="461" rx="5" ry="2.2" fill="#5C1F10" stroke="none" transform="rotate(48 338 461)"/><ellipse cx="200" cy="491" rx="5" ry="2.2" fill="#5C1F10" stroke="none" transform="rotate(-21 200 491)"/><ellipse cx="226" cy="444" rx="5" ry="2.2" fill="#5C1F10" stroke="none" transform="rotate(-19.2 226 444)"/><ellipse cx="400" cy="448" rx="5" ry="2.2" fill="#5C1F10" stroke="none" transform="rotate(8.2 400 448)"/><ellipse cx="354" cy="460" rx="5" ry="2.2" fill="#5C1F10" stroke="none" transform="rotate(4.8 354 460)"/><ellipse cx="242" cy="480" rx="5" ry="2.2" fill="#5C1F10" stroke="none" transform="rotate(-7.2 242 480)"/><ellipse cx="270" cy="473" rx="5" ry="2.2" fill="#5C1F10" stroke="none" transform="rotate(-4.7 270 473)"/><ellipse cx="266" cy="487" rx="5" ry="2.2" fill="#5C1F10" stroke="none" transform="rotate(19.9 266 487)"/><ellipse cx="251" cy="473" rx="5" ry="2.2" fill="#5C1F10" stroke="none" transform="rotate(2.5 251 473)"/><ellipse cx="416" cy="483" rx="5" ry="2.2" fill="#5C1F10" stroke="none" transform="rotate(-21.2 416 483)"/><ellipse cx="297" cy="484" rx="5" ry="2.2" fill="#5C1F10" stroke="none" transform="rotate(-35 297 484)"/><ellipse cx="315" cy="439" rx="5" ry="2.2" fill="#5C1F10" stroke="none" transform="rotate(16.8 315 439)"/><ellipse cx="387" cy="473" rx="5" ry="2.2" fill="#5C1F10" stroke="none" transform="rotate(38 387 473)"/><ellipse cx="270" cy="480" rx="5" ry="2.2" fill="#5C1F10" stroke="none" transform="rotate(9.4 270 480)"/><ellipse cx="339" cy="465" rx="5" ry="2.2" fill="#5C1F10" stroke="none" transform="rotate(34 339 465)"/><ellipse cx="434" cy="466" rx="5" ry="2.2" fill="#5C1F10" stroke="none" transform="rotate(16.4 434 466)"/><ellipse cx="204" cy="481" rx="5" ry="2.2" fill="#5C1F10" stroke="none" transform="rotate(14.7 204 481)"/><ellipse cx="200" cy="476" rx="9" ry="5.5" fill="#FFF4DC" stroke-width="3"/><ellipse cx="388" cy="490" rx="9" ry="5.5" fill="#FFF4DC" stroke-width="3"/><ellipse cx="288" cy="504" rx="9" ry="5.5" fill="#FFF4DC" stroke-width="3"/><ellipse cx="448" cy="460" rx="9" ry="5.5" fill="#FFF4DC" stroke-width="3"/><g transform="translate(258 450) rotate(-20)"><path d="M-20,0Q-4,-15 20,0Q-4,15 -20,0Z" fill="#2A7A37" stroke-width="3"/><path d="M-14,0L12,0" stroke="#1D1147" stroke-width="2.5" fill="none"/></g><g transform="translate(414 486) rotate(25)"><path d="M-18,0Q-3.6,-13.5 18,0Q-3.6,13.5 -18,0Z" fill="#2A7A37" stroke-width="3"/><path d="M-12.6,0L10.8,0" stroke="#1D1147" stroke-width="2.5" fill="none"/></g><g transform="translate(222 456) rotate(-18)"><path d="M-50,0C-30,-16 25,-15 50,-2.5C30,9 -20,15 -50,0Z" fill="#D62839"/><path d="M-40,2.5C-15,11 25,6 48,-1C30,9 -20,15 -40,2.5Z" fill="#A3172A" stroke="none"/><path d="M-25,-6Q0,-12 25,-8" fill="none" stroke="#EF5A4E" stroke-width="5"/><path d="M46,-6l7,-1l1,8l-7,2Z" fill="#2A7A37" stroke-width="3"/><path d="M53,-3q6,-2 10,-10" fill="none" stroke="#2A7A37" stroke-width="4"/></g><g transform="translate(418 474) rotate(200)"><path d="M-44,0C-26.4,-14.1 22,-13.2 44,-2.2C26.4,7.9 -17.6,13.2 -44,0Z" fill="#D62839"/><path d="M-35,2.2C-13.2,9.7 22,5.3 42,-0.9C26.4,7.9 -17.6,13.2 -35,2.2Z" fill="#A3172A" stroke="none"/><path d="M-22,-5.3Q0,-10.6 22,-7" fill="none" stroke="#EF5A4E" stroke-width="5"/><path d="M40,-5.3l6.2,-0.9l0.9,7l-6.2,1.8Z" fill="#2A7A37" stroke-width="3"/><path d="M47,-2.6q5.3,-1.8 8.8,-8.8" fill="none" stroke="#2A7A37" stroke-width="4"/></g><g transform="translate(188 460) rotate(30)"><path d="M-10,0Q-2,-7.5 10,0Q-2,7.5 -10,0Z" fill="#3FA34D" stroke-width="3"/><path d="M-7,0L6,0" stroke="#2A7A37" stroke-width="2.5" fill="none"/></g><g transform="translate(348 504) rotate(-20)"><path d="M-10,0Q-2,-7.5 10,0Q-2,7.5 -10,0Z" fill="#3FA34D" stroke-width="3"/><path d="M-7,0L6,0" stroke="#2A7A37" stroke-width="2.5" fill="none"/></g><g transform="translate(468 474) rotate(60)"><path d="M-10,0Q-2,-7.5 10,0Q-2,7.5 -10,0Z" fill="#3FA34D" stroke-width="3"/><path d="M-7,0L6,0" stroke="#2A7A37" stroke-width="2.5" fill="none"/></g><path d="M104,470A214,82 0 0 0 532,470L519,472A201,73 0 0 1 117,472Z" fill="#4FD3C8"/><path d="M127,504Q190,544 271,550" fill="none" stroke="#FFFFFF" stroke-width="5"/></g><g class="sizzle"><circle cx="258" cy="372" r="7.5" fill="#FF6A13" stroke-width="3"/><circle cx="256" cy="370" r="2.1" fill="#FFFFFF" stroke="none"/><circle cx="318" cy="344" r="6" fill="#FF6A13" stroke-width="3"/><circle cx="316" cy="342" r="1.7" fill="#FFFFFF" stroke="none"/><circle cx="352" cy="378" r="6.5" fill="#FF6A13" stroke-width="3"/><circle cx="350" cy="376" r="1.8" fill="#FFFFFF" stroke="none"/><circle cx="214" cy="350" r="5" fill="#FF6A13" stroke-width="3"/><circle cx="212" cy="348" r="1.4" fill="#FFFFFF" stroke="none"/><path d="M283,374l-10,-8.4M289,371l-1.1,-13M296,373l8.4,-10M243,324l-10,-8.4M249,321l-1.1,-13M256,323l8.4,-10" fill="none" stroke="#1D1147" stroke-width="5"/></g><g class="steam" fill="none" stroke="#1D1147" stroke-width="9" stroke-linecap="round" stroke-linejoin="round" opacity=".6"><path d="M470,248C471,246 476,241 476,238C476,235 472,231 470,228C468,225 462,221 462,218C462,215 467,211 470,208C473,205 478,201 478,198C478,195 472,191 470,188C468,185 464,181 464,178C464,175 468,171 470,168C472,165 475,161 475,158C475,155 472,151 470,148C468,145 465,141 465,138C465,135 468,131 470,128C472,125 474,120 475,118"/><path d="M560,236C559,234 554,229 554,226C554,223 558,219 560,216C562,213 568,209 568,206C568,203 563,199 560,196C557,193 551,189 551,186C551,183 557,179 560,176C563,173 568,169 568,166C568,163 562,159 560,156C558,153 555,149 555,146C555,143 558,139 560,136C562,133 565,129 565,126C565,123 562,119 560,116C558,113 555,109 555,106C555,103 558,99 560,96C562,93 564,88 565,86"/><path d="M150,400C149,398 144,393 144,390C144,387 148,383 150,380C152,377 157,373 157,370C157,367 152,363 150,360C148,357 143,353 143,350C143,347 148,343 150,340C152,337 155,333 155,330C155,327 152,323 150,320C148,317 146,313 146,310C146,307 149,303 150,300C151,297 154,293 154,290C154,287 151,282 150,280"/><path d="M196,392C197,390 201,385 201,381C201,378 197,374 195,371C193,367 189,364 190,360C191,356 197,353 198,349C200,346 201,342 200,339C199,335 195,332 194,328C193,324 193,321 193,317C194,314 198,310 199,307C199,303 198,298 198,296"/></g><g class="sparkle"><path d="M110,208Q116,230 138,236Q116,242 110,264Q104,242 82,236Q104,230 110,208Z" fill="#FFB000" stroke-width="3.5"/><circle cx="300" cy="230" r="6" fill="#E4147E" stroke-width="3"/></g><g class="sparkle"><path d="M712,498Q716,516 734,520Q716,524 712,542Q708,524 690,520Q708,516 712,498Z" fill="#4FD3C8" stroke-width="3.5"/><path d="M681,196H699M690,187V205" fill="none" stroke="#00A8A0" stroke-width="5"/></g><g class="sparkle"><path d="M660,625Q663,637 675,640Q663,643 660,655Q657,643 645,640Q657,637 660,625Z" fill="#F57DB8" stroke-width="3.5"/><circle cx="90" cy="470" r="6" fill="#FFB000" stroke-width="3"/></g></g></svg>